<svg height="512" viewBox="0 0 128 128" width="512" xmlns="http://www.w3.org/2000/svg"><path d="m100.668 27.332a11.819 11.819 0 0 0 -16.715 0l-49.709 49.709a1.713 1.713 0 0 0 -.365.57h-.017l-9.862 24.106a1.751 1.751 0 0 0 2.283 2.283l24.1-9.859a1.739 1.739 0 0 0 .581-.385l44.8-44.795 4.914-4.914a11.833 11.833 0 0 0 -.01-16.715zm-10.468 22.23-11.762-11.762 1.838-1.838 11.766 11.762zm-41.622 41.538-19.758 8.08 7.9-19.318a3.663 3.663 0 0 1 3.687 4.592 1.75 1.75 0 0 0 2.929 1.683c5.68-5.679 11.112-8.583 13.174-8.934-.618 2.391-4.31 8.661-7.932 13.897zm10.822-16.484a3.144 3.144 0 0 0 -2.339-.935c-3.022-.013-8.339 2.95-13.45 7.413a7.227 7.227 0 0 0 -4.2-4.275l36.553-36.549 11.766 11.766-29 29c2.184-4.807 1.17-5.892.67-6.42zm35.117-29.367-11.766-11.766 3.677-3.676a8.318 8.318 0 0 1 11.765 0c.2.2.389.41.566.625.031.039.057.08.088.119.143.182.283.366.409.556.01.016.017.032.027.047a8.34 8.34 0 0 1 0 9.071c-.01.016-.017.032-.027.047-.126.191-.266.374-.409.556-.031.039-.057.081-.088.119-.177.216-.365.425-.566.626z"/></svg>