<svg height="512" viewBox="0 0 512 512" width="512" xmlns="http://www.w3.org/2000/svg"><g id="Flat"><path d="m440 248v112h-368v-112a163.80517 163.80517 0 0 1 115.88-48h136.24a163.80574 163.80574 0 0 1 115.88 48z" fill="#984e3c"/><path d="m440 248v112h-368v-112a164.73442 164.73442 0 0 1 23.58-19.54 64.15842 64.15842 0 0 1 40.42 59.54v48h240v-48a64.15859 64.15859 0 0 1 40.41992-59.54 164.7283 164.7283 0 0 1 23.58008 19.54z" fill="#723024"/><path d="m120 288v160h-48v-132.28027a32.00142 32.00142 0 0 1 -48-27.71973 48 48 0 0 1 96 0z" fill="#984e3c"/><path d="m488 288a32.00945 32.00945 0 0 1 -48 27.71973v132.28027h-48v-160a48 48 0 0 1 96 0z" fill="#984e3c"/><path d="m104 288a48.05892 48.05892 0 0 1 -32 45.27979v-17.56006a32.67859 32.67859 0 0 0 6.63-5.08985 31.81644 31.81644 0 0 0 9.37-22.62988 16.05779 16.05779 0 0 0 -16.08-16h-.4a15.51722 15.51722 0 0 0 -15.52 15.52v.48h-16v-.48a31.53062 31.53062 0 0 1 31.52-31.52h.4a32.07247 32.07247 0 0 1 32.08 32z" fill="#723024"/><path d="m440 315.72a32.33636 32.33636 0 0 1 -6.63-5.09 31.81663 31.81663 0 0 1 -9.37-22.63 16.05766 16.05766 0 0 1 16.08-16h.4a15.51761 15.51761 0 0 1 15.52 15.53v.47h16v-.47a31.53026 31.53026 0 0 0 -31.52-31.53h-.4a32.0724 32.0724 0 0 0 -32.08 32 48.09374 48.09374 0 0 0 32 45.28z" fill="#723024"/><path d="m120 352h272v96h-272z" fill="#984e3c"/><path d="m120 392h272v16h-272z" fill="#723024"/><path d="m88 448h32v32h-32z" fill="#2f4054"/><path d="m392 448h32v32h-32z" fill="#2f4054"/><path d="m120 352h16v96h-16z" fill="#723024"/><path d="m376 352h16v96h-16z" fill="#723024"/><path d="m208 104v-16a48 48 0 0 1 48-48h.0001a48 48 0 0 1 48 48v16z" fill="#2f4054"/><path d="m336 200-3.45521-13.82086a24 24 0 0 0 -23.28342-18.17914h-101.66137a23.999 23.999 0 0 0 -21.93 14.25l-18 40.49a24.98719 24.98719 0 0 0 4.54 27.16l106.84349-3.9z" fill="#8acce7"/><path d="m192.852 222.45h47.329v16h-47.329z" fill="#379ec3" transform="matrix(.316 -.949 .949 .316 -70.584 362.965)"/><path d="m200 264h112v72h-112z" fill="#8acce7"/><path d="m200 304h112v40h-112z" fill="#396795"/><path d="m230.78 344h-30.78v-40h17.03a31.6241 31.6241 0 0 1 10.16 18.46973z" fill="#26507a"/><path d="m312 304v40h-30.78l3.59009-21.53027a31.624 31.624 0 0 1 10.15991-18.46973z" fill="#26507a"/><path d="m395.68994 209.45a40.00956 40.00956 0 0 1 -22.10986 35.76l-14.95008 7.48a61.108 61.108 0 0 1 -46.63 3.31l24-32 11.07007-5.53a16.87061 16.87061 0 0 0 4.37993-27.02l-3.45-3.45a16.97056 16.97056 0 0 1 24-24l6.48 6.48a59.62632 59.62632 0 0 1 16.66 32.37988 39.87349 39.87349 0 0 1 .54994 6.59012z" fill="#f4ceaf"/><path d="m334.06006 256a22.05568 22.05568 0 0 0 -22.06006 22.06006v18.33984a39.59367 39.59367 0 0 1 -67.6 28l-32.8-32.7998a39.59806 39.59806 0 0 1 28-67.6001h18.34a22.06431 22.06431 0 0 0 22.06-22.06006 23.97835 23.97835 0 0 1 24.16992-24.0498 23.50253 23.50253 0 0 1 16.80008 7.07986l30.06 30.06c15.12 15.1199 4.40994 40.97-16.96994 40.97z" fill="#ad7d4d"/><path d="m397.66 149.66-5.65 5.66-14.35 14.34-24.2 24.21-83.8 83.79-11.32-11.32 85.42-85.41 36.93-36.93 5.65-5.66z" fill="#eedc9a"/><path d="m384 136 16 16h16l24-24-32-32-24 24z" fill="#eedc9a"/><path d="m377.65991 169.65991-24.19991 24.21021a16.86113 16.86113 0 0 0 -2.01-2.42017l-3.45-3.44995a16.88606 16.88606 0 0 1 -4.24-7.07007l21.16993-21.16993a16.88606 16.88606 0 0 1 7.07007 4.24z" fill="#f4ceaf"/><path d="m385.176 138.826h7.998v16.009h-7.998z" fill="#eebe33" transform="matrix(.706 -.708 .708 .706 10.318 318.537)"/><path d="m312 296.25977v.14013a39.6155 39.6155 0 0 1 -29.21 38.22022l2.02-12.15039a31.55176 31.55176 0 0 1 27.19-26.20996z" fill="#966342"/><circle cx="256" cy="280" fill="#966342" r="16"/><path d="m256 304a24 24 0 1 1 24-24 24.02718 24.02718 0 0 1 -24 24zm0-32a8 8 0 1 0 8 8 8.00917 8.00917 0 0 0 -8-8z" fill="#2f4054"/><path d="m272 144v24a16 16 0 1 1 -32 0v-24z" fill="#f4ceaf"/><path d="m272 144v12.65991a39.99237 39.99237 0 0 1 -32 0v-12.65991z" fill="#f2c194"/><path d="m256 152a32 32 0 0 1 -32-32v-24a53.8962 53.8962 0 0 1 44.84436-24h3.15564l10.34315 10.34315a19.31369 19.31369 0 0 1 5.65685 13.65685v24a32 32 0 0 1 -32 32z" fill="#f4ceaf"/><path d="m224 120h-12a12 12 0 0 1 -12-12v-8a12 12 0 0 1 12-12 12 12 0 0 1 12 12z" fill="#f2c194"/><path d="m288 120h12a12 12 0 0 0 12-12v-8a12 12 0 0 0 -12-12 12 12 0 0 0 -12 12z" fill="#f2c194"/><path d="m176 448h64v32h-64z" fill="#f4ceaf"/><path d="m240 448h-48l-19.40578-116.43468a23.67343 23.67343 0 0 1 23.35133-27.56532h.00005a23.67342 23.67342 0 0 1 23.35132 19.78154z" fill="#396795"/><path d="m216 480h-72a32 32 0 0 1 32-32h4.223a32 32 0 0 1 28.62164 17.68915z" fill="#8acce7"/><path d="m272 448h64v32h-64z" fill="#f4ceaf"/><path d="m272 448h48l19.40578-116.43468a23.67343 23.67343 0 0 0 -23.35133-27.56532 23.67342 23.67342 0 0 0 -23.35132 19.78154z" fill="#396795"/><path d="m296 480h72a32 32 0 0 0 -32-32h-4.223a32 32 0 0 0 -28.62164 17.68915z" fill="#8acce7"/><path d="m240 488h-96a8 8 0 0 1 0-16h96a8 8 0 0 1 0 16z" fill="#379ec3"/><path d="m368 488h-96a8 8 0 0 1 0-16h96a8 8 0 0 1 0 16z" fill="#379ec3"/><path d="m219.82 268.18018-.3.2998a17.77433 17.77433 0 0 1 -23.97 1.1499l-21.04-17.54a24.99709 24.99709 0 0 1 -6.84-29.34988l9.56-21.51 42.58 42.58008a17.22258 17.22258 0 0 1 .01 24.3701z" fill="#f4ceaf"/></g></svg>